<svg width="150" height="73" viewBox="0 0 150 73" fill="none" xmlns="http://www.w3.org/2000/svg">
<path d="M71.1 37L62 21.7C61.7 21.3 61.7 21 61.6 20.4C61.5 19.3 61.2 18 59.8 15.9C65 12.4 72.6 8 83.6 6.9L91.3 0.5C91.4 1.7 91.2 3.3 91 4.4C91.9 3.8 93.4 2.5 94.3 1.5C94.6 5.3 93.3 7.7 92.1 10.1C95.2 15.4 98.3 17.6 98.6 19.6L98.9 21.5C99.3 22.9 106.6 34.1 108.8 38.2C109.8 39.7 109.1 40.7 108.5 42.1C107.8 43.4 107.8 45 106.4 45.7C105.1 46.4 104.1 46.4 102.4 46.6C101.1 47.1 98.3 46.7 97.6 46C96.9 45.3 96.7 43.4 95.7 42.4C94.7 41.4 87.6 37 87.3 37C85.3 37 82.7 37.3 79.4 34.3C75.6 39.3 69.3 50.4 71.9 72.3C65 71 50 65.6 43.1 46.9C42.3 44.7 41.4 42.1 40.6 38.4C42.4 39.7 45.4 39.7 46.4 39.7L53.4 44C54.6 44.7 54.3 45.1 55 46.4C56 48.6 57.3 49.6 61 49.6C62.1 49.6 63.3 49.3 64.6 49.2C68.4 48.6 69.4 47.3 70.4 44C71.1 42.7 72.6 39.7 71.1 37Z" fill="#A5A5A5"/>
<path d="M148.1 38.3C145.9 34.4 139.4 23.9 139.1 23.1L139 22.9C138.7 22.3 139 22.9 139 22.7L138.8 22.1C138.6 21.7 138.6 21.4 138.6 21.1L138.4 20C138.1 18 136 16.6 135 15.1C133.9 13.7 132.6 11.4 132.6 11.4L132.4 11.2V11.1L132.3 11V10.9L132.2 10.8V10.7C132.2 10.6 132.1 10.5 132.1 10.3C133.4 8 135.1 5.4 134.8 1.5L131.6 4.4C131.9 3.1 131.9 0.5 131.8 0.5L124 6.9C116.9 7 111.6 8.6 104.9 12.3C103.4 13.1 101.4 14.3 100 15.7C101.6 17.6 101.7 19 101.9 20.3C102 21 102 21.1 102.4 21.7L111.6 37.1C113 39.4 112.1 42 111.4 43.1C110.4 45.9 109.9 48.1 106.4 48.9C105.1 49.3 102.6 49.6 100.7 49.6C96 49.4 95.1 48.4 94 45.4C93.7 44.4 93.7 44.4 91.7 43.3L86.4 39.8C85.4 39.8 82.1 39.8 80.4 38.5C81.4 41.9 83.1 47.4 86.6 53C91.4 60.4 99.1 68.6 112.1 72.1H112.3H112.4V72.2L113.1 72.3C110.4 56.9 114.1 42.9 119.6 34.3C122.1 36.7 124 37 127.7 37L135.1 41.7C137.4 43 136.9 45.4 138.1 46.3C138.7 46.7 140.6 47 141.7 46.7L144.4 46.3C147.1 45.7 146.9 44.7 147.3 43.3C147.9 41.4 149.4 40.3 148.1 38.3Z" fill="#424242"/>
<path d="M43.8 6.89999L51.4 0.499994C51.6 0.399994 51.6 2.69999 51.1 4.39999L54.6 1.49999C54.7 5.39999 53.4 7.59999 52.1 10.3C53.1 11.6 54.4 14.1 56.1 15.9C58.9 18.9 58.7 19.3 59 21.4C59.1 22.6 65.9 33 68.6 38C69.9 39.9 68.6 41.1 67.9 43.1C67.3 45.7 66.4 46.1 63.3 46.5C61.1 46.7 60.7 47 58.4 46.4C57.1 45.9 57.3 43.6 55.7 42.3L47.4 37C45.4 37 43 37.4 39.6 34.3C35.4 39.7 29 51.1 31.7 72.3C24.1 70.9 9.7 65.1 2.6 43.7L1.9 41.4V41.3V41.2V41.1V41V40.9V40.8V40.7V40.6V40.5V40.4V40.3V40.2V40.1C1.6 39.6 1.9 38.3 1.9 38.3C6.4 30 19.6 8.99999 39.4 7.29999L43.8 6.89999Z" fill="white"/>
</svg>
