<svg xmlns="http://www.w3.org/2000/svg" viewBox="0 0 150 73">
<!-- SVG created with Arrow, by QuiverAI (https://quiver.ai) -->
  <style type="text/css">.cls-0 {fill:#fff;}</style>
  <path class="cls-0" d="m71.1 37-9.1-15.3c-0.3-0.4-0.3-0.7-0.4-1.3-0.1-1.1-0.4-2.4-1.8-4.5 5.2-3.5 12.8-7.9 23.8-9l7.7-6.4c0.1 1.2-0.1 2.8-0.3 3.9 0.9-0.6 2.4-1.9 3.3-2.9 0.3 3.8-1 6.2-2.2 8.6 3.1 5.3 6.2 7.5 6.5 9.5l0.3 1.9c0.4 1.4 7.7 12.6 9.9 16.7 1 1.5 0.3 2.5-0.3 3.9-0.7 1.3-0.7 2.9-2.1 3.6-1.3 0.7-2.3 0.7-4 0.9-1.3 0.5-4.1 0.1-4.8-0.6s-0.9-2.6-1.9-3.6-8.1-5.4-8.4-5.4c-2 0-4.6 0.3-7.9-2.7-3.8 5-10.1 16.1-7.5 38-6.9-1.3-21.9-6.7-28.8-25.4-0.8-2.2-1.7-4.8-2.5-8.5 1.8 1.3 4.8 1.3 5.8 1.3l7 4.3c1.2 0.7 0.9 1.1 1.6 2.4 1 2.2 2.3 3.2 6 3.2 1.1 0 2.3-0.3 3.6-0.4 3.8-0.6 4.8-1.9 5.8-5.2 0.7-1.3 2.2-4.3 0.7-7z"/>
  <path class="cls-0" d="m148.1 38.3c-2.2-3.9-8.7-14.4-9-15.2l-0.1-0.2c-0.3-0.6 0 0 0-0.2l-0.2-0.6c-0.2-0.4-0.2-0.7-0.2-1l-0.2-1.1c-0.3-2-2.4-3.4-3.4-4.9-1.1-1.4-2.4-3.7-2.4-3.7l-0.2-0.2v-0.1l-0.1-0.1v-0.1l-0.1-0.1v-0.1c0-0.1-0.1-0.2-0.1-0.4 1.3-2.3 3-4.9 2.7-8.8l-3.2 2.9c0.3-1.3 0.3-3.9 0.2-3.9l-7.8 6.4c-7.1 0.1-12.4 1.7-19.1 5.4-1.5 0.8-3.5 2-4.9 3.4 1.6 1.9 1.7 3.3 1.9 4.6 0.1 0.7 0.1 0.8 0.5 1.4l9.2 15.4c1.4 2.3 0.5 4.9-0.2 6-1 2.8-1.5 5-5 5.8-1.3 0.4-3.8 0.7-5.7 0.7-4.7-0.2-5.6-1.2-6.7-4.2-0.3-1-0.3-1-2.3-2.1l-5.3-3.5c-1 0-4.3 0-6-1.3 1 3.4 2.7 8.9 6.2 14.5 4.8 7.4 12.5 15.6 25.5 19.1h0.2 0.1v0.1l0.7 0.1c-2.7-15.4 1-29.4 6.5-38 2.5 2.4 4.4 2.7 8.1 2.7l7.4 4.7c2.3 1.3 1.8 3.7 3 4.6 0.6 0.4 2.5 0.7 3.6 0.4l2.7-0.4c2.7-0.6 2.5-1.6 2.9-3 0.6-1.9 2.1-3 0.8-5z"/>
  <path class="cls-0" d="m43.8 6.9 7.6-6.4c0.2-0.1 0.2 2.2-0.3 3.9l3.5-2.9c0.1 3.9-1.2 6.1-2.5 8.8 1 1.3 2.3 3.8 4 5.6 2.8 3 2.6 3.4 2.9 5.5 0.1 1.2 6.9 11.6 9.6 16.6 1.3 1.9 0 3.1-0.7 5.1-0.6 2.6-1.5 3-4.6 3.4-2.2 0.2-2.6 0.5-4.9-0.1-1.3-0.5-1.1-2.8-2.7-4.1l-8.3-5.3c-2 0-4.4 0.4-7.8-2.7-4.2 5.4-10.6 16.8-7.9 38-7.6-1.4-22-7.2-29.1-28.6l-0.7-2.3v-0.1-0.1-0.1-0.1-0.1-0.1-0.1-0.1-0.1-0.1-0.1-0.1-0.1c-0.3-0.5 0-1.8 0-1.8 4.5-8.3 17.7-29.3 37.5-31l4.4-0.4z"/>
</svg>